HIERARCHY
ROOT Hips
{
	OFFSET -0.179506 -22.333345 2.821913
	CHANNELS 6 Xposition Yposition Zposition Zrotation Yrotation Xrotation 
	JOINT LeftUpLeg
	{
		OFFSET 6.951974 -9.140623 -0.681533
		CHANNELS 3 Zrotation Yrotation Xrotation
		JOINT LeftLeg
		{
			OFFSET 3.427654 -37.519855 -0.449580
			CHANNELS 3 Zrotation Yrotation Xrotation
			JOINT LeftFoot
			{
				OFFSET -1.359570 -39.796059 -4.369333
				CHANNELS 3 Zrotation Yrotation Xrotation
				JOINT LeftToe
				{
					OFFSET 2.635814 -5.579078 11.928840
					CHANNELS 3 Zrotation Yrotation Xrotation
					End Site
					{
						OFFSET 0.000000 0.000000 0.000000
					}
				}
			}
		}
	}
	JOINT RightUpLeg
	{
		OFFSET -6.767048 -9.052170 -0.431982
		CHANNELS 3 Zrotation Yrotation Xrotation
		JOINT RightLeg
		{
			OFFSET -3.829005 -38.256897 -0.885003
			CHANNELS 3 Zrotation Yrotation Xrotation
			JOINT RightFoot
			{
				OFFSET 1.577377 -39.841461 -4.231180
				CHANNELS 3 Zrotation Yrotation Xrotation
				JOINT RightToe
				{
					OFFSET -2.537174 -4.814398 12.334795
					CHANNELS 3 Zrotation Yrotation Xrotation
					End Site
					{
						OFFSET 0.000000 0.000000 0.000000
					}
				}
			}
		}
	}
	JOINT Spine
	{
		OFFSET -0.253288 10.896323 -2.669631
		CHANNELS 3 Zrotation Yrotation Xrotation
		JOINT Spine1
		{
			OFFSET 0.548704 13.518043 0.109247
			CHANNELS 3 Zrotation Yrotation Xrotation
			JOINT Spine2
			{
				OFFSET 0.145701 5.292222 2.542457
				CHANNELS 3 Zrotation Yrotation Xrotation
				JOINT Neck
				{
					OFFSET -0.277840 21.387037 -4.285703
					CHANNELS 3 Zrotation Yrotation Xrotation
					JOINT Head
					{
						OFFSET 0.515184 6.496960 5.134897
						CHANNELS 3 Zrotation Yrotation Xrotation
						End Site
						{
							OFFSET 0.000000 0.000000 0.000000
						}
					}
				}
				JOINT LeftShoulder
				{
					OFFSET 7.884473 12.174932 -3.408961
					CHANNELS 3 Zrotation Yrotation Xrotation
					JOINT LeftArm
					{
						OFFSET 9.097692 3.046888 -0.886815
						CHANNELS 3 Zrotation Yrotation Xrotation
						JOINT LeftForeArm
						{
							OFFSET 25.961220 -1.277207 -2.745643
							CHANNELS 3 Zrotation Yrotation Xrotation
							JOINT LeftHand
							{
								OFFSET 24.923361 0.898606 -0.117091
								CHANNELS 3 Zrotation Yrotation Xrotation
								End Site
								{
									OFFSET 0.000000 0.000000 0.000000
								}
							}
						}
					}
				}
				JOINT RightShoulder
				{
					OFFSET -8.175920 11.883285 -3.861528
					CHANNELS 3 Zrotation Yrotation Xrotation
					JOINT RightArm
					{
						OFFSET -9.601238 3.255117 -0.914307
						CHANNELS 3 Zrotation Yrotation Xrotation
						JOINT RightForeArm
						{
							OFFSET -25.374195 -1.332924 -2.140099
							CHANNELS 3 Zrotation Yrotation Xrotation
							JOINT RightHand
							{
								OFFSET -25.529810 0.777228 -0.555919
								CHANNELS 3 Zrotation Yrotation Xrotation
								End Site
								{
									OFFSET 0.000000 0.000000 0.000000
								}
							}
						}
					}
				}
			}
		}
	}
}
MOTION
Frames: 9
Frame Time: 0.033333
311.887787 309.062714 83.401947 -54.655526 -1.629848 91.391415 12.610708 -8.157061 -56.324076 -5.415473 12.351721 65.755834 8.164398 8.958127 -20.553809 nan nan nan -1.053521 -2.869835 13.777290 5.192981 14.691687 31.342501 9.096903 -0.309174 -19.454197 nan nan nan -6.299839 17.877884 13.282309 4.111600 -0.428616 -0.877984 0.470595 7.789161 0.057897 1.509166 -2.703176 -13.510395 3.132094 -15.315461 -7.278942 -7.598091 2.652184 3.615948 -25.116621 23.689161 16.409243 -103.801924 -68.415690 149.963983 34.237068 -27.163895 23.883148 12.877853 13.465178 -4.655603 40.659256 12.973582 2.336493 -124.482695 69.527676 -98.080662 -6.548953 11.150131 0.250525 
309.720306 306.845764 84.065758 -54.255103 -1.625618 92.373660 13.512620 -9.138133 -56.853033 -5.572558 12.322412 59.767560 9.204429 8.739158 -17.947155 nan nan nan -0.812586 -2.894113 15.263267 3.748759 15.627758 28.447033 12.417999 -1.109715 -14.774040 nan nan nan -7.351952 20.717475 15.033109 3.610203 2.764555 -6.311154 1.726583 5.189122 -0.723330 1.945758 -5.360372 -11.959328 3.341976 -16.262205 -6.043626 -6.260278 4.294102 6.326370 -22.769979 21.206456 17.831003 -107.953590 -63.547402 154.969720 32.712074 -25.609016 15.219010 11.151199 8.597659 -4.992912 42.154733 11.631305 3.731338 -130.878979 69.050016 -103.450689 -3.901832 12.636452 -1.741919 
307.618652 304.807587 84.573807 -54.312670 -2.640221 91.450898 13.053611 -10.118502 -54.919354 -5.396285 12.441516 54.141669 7.159148 7.386834 -16.643524 nan nan nan -2.133017 -3.283210 18.286425 1.916966 15.674454 26.495714 12.982659 -0.666495 -9.937169 nan nan nan -7.968968 20.724941 10.323559 3.768800 0.911333 2.185500 0.519373 7.609370 -1.912226 1.996002 -4.496694 -12.062154 4.951214 -17.802929 -7.728271 -4.388927 2.701156 5.526539 -25.584593 22.365924 16.042769 -113.162925 -65.491982 153.735804 21.902583 -24.973810 14.610693 10.258525 10.976855 -4.593887 41.931834 11.802820 2.715388 -130.732317 67.035722 -104.181965 1.627067 11.444348 1.733308 
305.422729 302.627197 85.089508 -53.956292 -2.978661 91.288269 12.587590 -10.636598 -53.740528 -5.963561 11.276965 48.755540 6.764387 7.197569 -14.369042 nan nan nan -2.243205 -3.583898 20.606267 0.651574 16.768539 24.263355 12.149479 -1.664348 -5.191091 nan nan nan -8.415221 21.195141 8.739722 3.604254 0.714997 4.185530 0.341064 7.933690 -2.876411 1.788726 -5.733577 -10.593716 6.364467 -17.797750 -8.750995 -3.571890 2.763901 5.663902 -25.459804 22.867375 15.617101 -114.022181 -64.537033 154.379762 21.158515 -25.292930 14.822934 9.171288 11.239157 -4.270682 42.233841 10.961474 2.529938 -133.690739 66.592397 -106.416760 2.109055 11.700636 1.825378 
303.179077 300.389526 85.451416 -54.017147 -3.028892 91.688432 12.558800 -10.668661 -52.880012 -6.392096 10.309577 43.724485 6.251186 6.768899 -12.421921 nan nan nan -1.803406 -3.201778 22.054840 -0.317025 18.159984 22.540538 10.944551 -2.676291 -0.209573 nan nan nan -8.998732 21.440911 6.145355 3.584087 1.006166 6.216813 0.159248 8.209625 -3.819582 1.615786 -7.024277 -8.603420 7.670861 -17.637939 -10.022371 -2.965398 2.696841 6.333787 -25.512850 23.336085 15.012681 -114.779901 -63.687422 154.712995 21.502097 -25.924761 15.851634 8.441226 11.161494 -3.517525 42.683608 10.553255 2.069569 -137.259434 66.571481 -109.818271 2.730638 12.154134 1.740215 
300.988556 298.300049 85.746124 -53.885933 -3.220406 91.714949 12.048990 -10.734471 -51.589813 -7.105862 8.596382 39.042037 6.089612 6.680262 -11.063533 nan nan nan -1.619529 -3.406639 23.168114 -1.537088 18.640078 21.413707 9.470226 -3.619396 4.463430 nan nan nan -9.596592 21.693081 5.034949 3.470283 1.120961 6.504194 0.210077 8.361457 -3.948410 1.202077 -8.418882 -7.064030 8.997087 -16.960840 -10.770325 -2.367469 2.757106 6.834179 -25.583359 23.614044 14.530347 -115.385284 -62.845611 155.364013 23.053031 -25.907698 15.802415 7.711532 10.979222 -3.180422 43.497175 10.001492 2.266578 -140.646000 66.356269 -112.820391 3.510509 12.087411 0.863397 
298.868134 296.175476 85.964104 -53.614733 -3.579297 91.665487 11.194900 -11.019858 -50.153192 -7.726613 6.722217 34.777808 6.529459 7.071807 -10.058856 nan nan nan -1.682182 -3.586283 23.942147 -1.742234 19.615478 21.495314 7.684497 -3.882080 8.880288 nan nan nan -10.134800 21.773932 4.070555 3.372811 1.237463 6.689906 0.337886 8.259173 -3.666295 0.599297 -9.576349 -6.089595 9.780503 -15.823883 -11.315896 -2.183801 3.060369 6.926909 -25.597161 23.703087 14.763767 -115.620717 -62.626175 155.433185 29.360077 -25.908765 14.349163 7.058172 10.466489 -3.476116 44.297409 9.793250 3.328854 -143.674494 66.463993 -116.048387 2.665142 12.089252 -0.102989 
296.718231 294.093384 86.123444 -53.696907 -3.486138 92.033345 10.889253 -10.649621 -49.078000 -7.935099 5.509535 31.422382 5.995141 7.078863 -9.878995 nan nan nan -0.910318 -2.840287 23.747667 -1.515532 19.826729 23.290691 7.271330 -3.585600 8.553614 nan nan nan -10.690049 21.440255 2.353032 3.544245 1.605090 7.177111 0.381209 8.250123 -3.714766 0.736864 -9.463485 -5.297955 9.738248 -15.597192 -11.296938 -2.197080 3.296663 6.918565 -25.770085 24.096898 14.795754 -116.315966 -62.182801 156.175251 28.563721 -26.418809 15.098146 7.070554 10.183790 -3.525919 44.783649 9.327547 4.287870 -146.579180 66.758185 -119.036428 3.095960 12.680058 -0.746284 
294.716949 291.970612 86.265396 -53.381726 -3.487863 91.673015 10.025589 -10.936772 -47.369117 -7.924616 3.971787 28.740618 5.739534 7.845552 -9.918909 nan nan nan -0.606918 -2.315045 24.249599 -0.706728 19.531873 25.542115 7.785593 -3.906731 5.161216 nan nan nan -10.283872 21.168568 2.197167 3.442251 1.634265 7.540311 0.134367 8.067077 -3.851586 1.013167 -9.184707 -5.452698 9.205846 -15.800485 -10.666462 -2.614193 3.405463 6.800401 -26.151009 24.474985 15.034231 -116.590815 -62.567429 156.356740 29.891965 -26.627574 15.011993 7.190617 10.065424 -3.989127 45.216405 8.291244 5.357782 -149.666569 67.103219 -122.127962 3.224693 13.155283 -0.667083 
